<?xml version="1.0" encoding="utf-8"?>
<!-- Generator: Adobe Illustrator 28.3.0, SVG Export Plug-In . SVG Version: 6.00 Build 0)  -->
<svg version="1.1" id="Capa_1" xmlns="http://www.w3.org/2000/svg" xmlns:xlink="http://www.w3.org/1999/xlink" x="0px" y="0px"
	 viewBox="0 0 481.2 487.2" style="enable-background:new 0 0 481.2 487.2;" xml:space="preserve">
<style type="text/css">
	.st0{fill:#010202;}
	.st1{fill:#0C5DA9;}
	.st2{fill:#1EA850;}
</style>
<g>
	<g>
		<g>
			<path class="st0" d="M45.15,381.09h3.92v15.12c0,2.05-0.15,3.59-0.46,4.63c-0.31,1.04-0.68,1.91-1.13,2.6s-1,1.31-1.65,1.86
				c-2.16,1.82-4.98,2.73-8.47,2.73c-3.55,0-6.4-0.9-8.55-2.71c-0.65-0.56-1.2-1.19-1.65-1.88s-0.82-1.54-1.11-2.54
				c-0.29-1-0.44-2.58-0.44-4.73v-15.08h3.92v15.12c0,2.5,0.29,4.25,0.88,5.22c0.59,0.98,1.48,1.76,2.67,2.35
				c1.2,0.59,2.61,0.89,4.24,0.89c2.32,0,4.2-0.59,5.66-1.77c0.77-0.63,1.32-1.38,1.66-2.25s0.51-2.34,0.51-4.44V381.09z"/>
			<path class="st0" d="M59.16,389.17v2.23c1.59-1.72,3.39-2.57,5.41-2.57c1.12,0,2.16,0.28,3.12,0.85s1.69,1.34,2.2,2.33
				c0.5,0.99,0.75,2.54,0.75,4.68v10.03h-3.55v-9.99c0-1.79-0.28-3.07-0.84-3.84c-0.56-0.77-1.5-1.15-2.81-1.15
				c-1.68,0-3.1,0.82-4.27,2.46v12.52h-3.63v-17.54H59.16z"/>
			<path class="st0" d="M78.63,381.64c0.59,0,1.09,0.2,1.5,0.59s0.62,0.88,0.62,1.45c0,0.56-0.21,1.04-0.62,1.45
				c-0.42,0.41-0.92,0.61-1.5,0.61c-0.55,0-1.03-0.21-1.44-0.62c-0.42-0.41-0.62-0.89-0.62-1.44c0-0.53,0.21-1.01,0.62-1.42
				C77.6,381.84,78.08,381.64,78.63,381.64z M76.87,389.02h3.55v17.54h-3.55V389.02z"/>
			<path class="st0" d="M98.36,388.86h3.85l-7.93,17.84h-1.2l-8.12-17.84h3.89l4.85,10.79L98.36,388.86z"/>
			<path class="st0" d="M121.06,398.39h-12.63c0.09,1.68,0.67,3.01,1.73,4c1.06,0.99,2.43,1.49,4.11,1.49c2.34,0,4.5-0.71,6.48-2.13
				v3.39c-1.09,0.71-2.18,1.22-3.25,1.53c-1.07,0.3-2.33,0.46-3.78,0.46c-1.98,0-3.58-0.4-4.8-1.2c-1.22-0.8-2.2-1.88-2.94-3.23
				c-0.74-1.35-1.1-2.92-1.1-4.7c0-2.67,0.77-4.84,2.32-6.51c1.55-1.67,3.56-2.51,6.03-2.51c2.38,0,4.28,0.81,5.7,2.44
				c1.42,1.63,2.13,3.81,2.13,6.54V398.39z M108.51,396.32h9.04c-0.09-1.39-0.51-2.45-1.27-3.2c-0.75-0.75-1.77-1.12-3.04-1.12
				c-1.28,0-2.32,0.38-3.13,1.12C109.29,393.86,108.76,394.93,108.51,396.32z"/>
			<path class="st0" d="M131.01,389.17v4.02l0.2-0.3c1.72-2.71,3.44-4.06,5.15-4.06c1.34,0,2.74,0.66,4.2,1.98l-1.87,3.05
				c-1.24-1.14-2.38-1.72-3.44-1.72c-1.15,0-2.14,0.53-2.98,1.6c-0.84,1.07-1.26,2.33-1.26,3.79v9.17h-3.57v-17.54H131.01z"/>
			<path class="st0" d="M143.73,405.3v-3.74c1,0.69,2.03,1.24,3.07,1.67s1.93,0.64,2.64,0.64c0.74,0,1.38-0.18,1.91-0.53
				c0.53-0.36,0.8-0.78,0.8-1.28c0-0.51-0.17-0.93-0.52-1.27c-0.35-0.34-1.09-0.82-2.23-1.46c-2.29-1.25-3.79-2.31-4.5-3.19
				c-0.71-0.88-1.06-1.85-1.06-2.89c0-1.35,0.54-2.45,1.61-3.3c1.07-0.85,2.46-1.28,4.15-1.28c1.76,0,3.56,0.48,5.41,1.45v3.43
				c-2.11-1.25-3.83-1.87-5.17-1.87c-0.69,0-1.25,0.14-1.67,0.43c-0.42,0.29-0.63,0.67-0.63,1.14c0,0.41,0.19,0.8,0.57,1.16
				c0.38,0.37,1.06,0.81,2.02,1.33l1.27,0.71c2.99,1.65,4.49,3.48,4.49,5.49c0,1.44-0.58,2.61-1.73,3.54
				c-1.15,0.92-2.63,1.38-4.44,1.38c-1.07,0-2.02-0.11-2.85-0.33C146.04,406.3,144.99,405.89,143.73,405.3z"/>
			<path class="st0" d="M163.42,381.64c0.59,0,1.09,0.2,1.5,0.59s0.62,0.88,0.62,1.45c0,0.56-0.21,1.04-0.62,1.45
				c-0.42,0.41-0.92,0.61-1.5,0.61c-0.55,0-1.03-0.21-1.44-0.62c-0.42-0.41-0.62-0.89-0.62-1.44c0-0.53,0.21-1.01,0.62-1.42
				C162.39,381.85,162.87,381.64,163.42,381.64z M161.66,389.02h3.55v17.54h-3.55V389.02z"/>
			<path class="st0" d="M183.43,379.77H187v26.63h-7.59c-2.65,0-4.77-0.82-6.35-2.46c-1.58-1.64-2.37-3.84-2.37-6.6
				c0-2.58,0.83-4.7,2.49-6.37c1.66-1.66,3.78-2.5,6.35-2.5c1.2,0,2.5,0.25,3.9,0.74V379.77z M183.43,403.43v-11.11
				c-1.11-0.55-2.23-0.82-3.36-0.82c-1.77,0-3.18,0.57-4.23,1.7c-1.05,1.13-1.57,2.66-1.57,4.58c0,1.8,0.46,3.2,1.37,4.17
				c0.55,0.58,1.12,0.98,1.74,1.18c0.61,0.2,1.71,0.3,3.3,0.3H183.43z"/>
			<path class="st0" d="M205.41,396.28v7.45c0,0.6,0.21,0.9,0.62,0.9c0.43,0,1.1-0.31,2.01-0.93v2.12
				c-0.81,0.51-1.45,0.86-1.94,1.04c-0.49,0.18-1,0.28-1.53,0.28c-1.52,0-2.42-0.58-2.69-1.75c-1.51,1.14-3.12,1.72-4.82,1.72
				c-1.25,0-2.29-0.4-3.12-1.21s-1.25-1.82-1.25-3.04c0-1.11,0.41-2.09,1.22-2.96c0.81-0.87,1.97-1.56,3.46-2.07l4.55-1.52v-0.93
				c0-2.11-1.08-3.16-3.24-3.16c-1.94,0-3.83,0.98-5.66,2.94v-3.79c1.38-1.59,3.36-2.38,5.95-2.38c1.94,0,3.49,0.5,4.66,1.49
				c0.39,0.32,0.74,0.74,1.05,1.27c0.31,0.53,0.51,1.05,0.6,1.58S205.41,394.8,205.41,396.28z M201.91,403.35v-5.2l-2.38,0.9
				c-1.21,0.47-2.07,0.94-2.57,1.42c-0.5,0.48-0.75,1.07-0.75,1.78c0,0.72,0.24,1.32,0.71,1.77c0.47,0.46,1.09,0.69,1.84,0.69
				C199.9,404.7,200.95,404.25,201.91,403.35z"/>
			<path class="st0" d="M223.87,380.19h3.57v26.63h-7.59c-2.65,0-4.77-0.82-6.35-2.46c-1.58-1.64-2.37-3.84-2.37-6.6
				c0-2.58,0.83-4.7,2.49-6.37c1.66-1.66,3.78-2.5,6.35-2.5c1.2,0,2.5,0.25,3.9,0.74V380.19z M223.87,403.85v-11.11
				c-1.11-0.55-2.23-0.82-3.36-0.82c-1.77,0-3.18,0.57-4.23,1.7c-1.05,1.13-1.57,2.66-1.57,4.58c0,1.8,0.46,3.2,1.37,4.17
				c0.55,0.58,1.12,0.98,1.74,1.18c0.61,0.2,1.71,0.3,3.3,0.3H223.87z"/>
			<path class="st0" d="M262.83,380.57h3.68l-10.91,26.25h-0.84l-11.12-26.25h3.72l7.76,18.35L262.83,380.57z"/>
			<path class="st0" d="M282.5,398.1h-11.95c0.09,1.65,0.63,2.96,1.63,3.93c1,0.97,2.3,1.46,3.89,1.46c2.22,0,4.26-0.7,6.13-2.1
				v3.33c-1.03,0.7-2.06,1.2-3.07,1.5c-1.02,0.3-2.21,0.45-3.57,0.45c-1.87,0-3.39-0.39-4.54-1.18s-2.08-1.84-2.78-3.17
				c-0.7-1.33-1.04-2.87-1.04-4.61c0-2.62,0.73-4.75,2.2-6.39c1.46-1.64,3.37-2.46,5.71-2.46c2.25,0,4.05,0.8,5.39,2.39
				c1.34,1.6,2.01,3.74,2.01,6.42V398.1z M270.62,396.06h8.55c-0.09-1.36-0.49-2.41-1.2-3.14s-1.67-1.1-2.88-1.1
				s-2.19,0.37-2.96,1.1C271.36,393.65,270.86,394.7,270.62,396.06z"/>
			<path class="st0" d="M292.8,389.3v3.95l0.18-0.3c1.62-2.66,3.25-3.99,4.88-3.99c1.27,0,2.59,0.65,3.97,1.95l-1.77,2.99
				c-1.17-1.12-2.25-1.68-3.25-1.68c-1.08,0-2.02,0.52-2.82,1.57c-0.79,1.05-1.19,2.29-1.19,3.72v9h-3.38V389.3H292.8z"/>
			<path class="st0" d="M317.52,396.02v7.32c0,0.59,0.2,0.88,0.59,0.88c0.41,0,1.04-0.31,1.9-0.92v2.08
				c-0.76,0.5-1.38,0.84-1.84,1.02c-0.46,0.18-0.94,0.27-1.45,0.27c-1.44,0-2.29-0.57-2.55-1.72c-1.43,1.12-2.95,1.68-4.56,1.68
				c-1.18,0-2.17-0.4-2.95-1.19c-0.79-0.79-1.18-1.79-1.18-2.98c0-1.09,0.38-2.06,1.15-2.91c0.77-0.85,1.86-1.53,3.28-2.03l4.3-1.5
				v-0.92c0-2.07-1.02-3.11-3.07-3.11c-1.83,0-3.62,0.96-5.36,2.88v-3.72c1.3-1.56,3.18-2.34,5.63-2.34c1.83,0,3.31,0.49,4.41,1.46
				c0.37,0.31,0.7,0.73,1,1.25s0.48,1.04,0.56,1.55S317.52,394.57,317.52,396.02z M314.21,402.96v-5.11l-2.25,0.88
				c-1.15,0.46-1.95,0.93-2.43,1.39c-0.47,0.47-0.71,1.05-0.71,1.75c0,0.71,0.22,1.29,0.67,1.74c0.45,0.45,1.03,0.67,1.75,0.67
				C312.31,404.29,313.3,403.85,314.21,402.96z"/>
			<path class="st0" d="M337.99,402.46v3.37c-1.69,0.64-3.34,0.96-4.95,0.96c-2.66,0-4.78-0.8-6.36-2.4s-2.37-3.74-2.37-6.42
				c0-2.71,0.77-4.89,2.31-6.55c1.54-1.66,3.56-2.49,6.08-2.49c0.87,0,1.66,0.08,2.35,0.25c0.7,0.17,1.55,0.48,2.58,0.94v3.63
				c-1.7-1.1-3.27-1.65-4.73-1.65c-1.51,0-2.76,0.54-3.73,1.62c-0.97,1.08-1.46,2.45-1.46,4.12c0,1.76,0.53,3.16,1.58,4.19
				c1.05,1.04,2.47,1.55,4.26,1.55C334.84,403.6,336.32,403.22,337.99,402.46z"/>
			<path class="st0" d="M348,389.11v3.95l0.18-0.3c1.62-2.66,3.25-3.99,4.88-3.99c1.27,0,2.59,0.65,3.97,1.95l-1.77,2.99
				c-1.17-1.12-2.25-1.68-3.25-1.68c-1.08,0-2.02,0.52-2.82,1.57c-0.79,1.05-1.19,2.29-1.19,3.72v9h-3.38v-17.21H348z"/>
			<path class="st0" d="M372.33,406.5v-2.21c-0.71,0.79-1.53,1.41-2.45,1.85c-0.92,0.44-1.83,0.66-2.74,0.66
				c-1.07,0-2.06-0.27-2.96-0.81s-1.59-1.28-2.05-2.21c-0.46-0.93-0.69-2.47-0.69-4.63v-9.86h3.36v9.81c0,1.81,0.26,3.07,0.77,3.78
				c0.51,0.72,1.41,1.07,2.69,1.07c1.6,0,2.96-0.79,4.08-2.38v-12.29h3.36v17.21H372.33z"/>
			<path class="st0" d="M381.77,389.15h14.52l-9,14.03h9v3.18H381.4l8.93-14.03h-8.56V389.15z"/>
			<path class="st0" d="M413.8,395.63v7.32c0,0.59,0.2,0.88,0.59,0.88c0.41,0,1.04-0.31,1.9-0.92v2.08
				c-0.76,0.5-1.38,0.84-1.84,1.02c-0.46,0.18-0.94,0.27-1.45,0.27c-1.44,0-2.29-0.57-2.55-1.72c-1.43,1.12-2.95,1.68-4.56,1.68
				c-1.18,0-2.17-0.4-2.95-1.19c-0.79-0.79-1.18-1.79-1.18-2.98c0-1.09,0.38-2.06,1.15-2.91c0.77-0.85,1.86-1.53,3.28-2.03l4.3-1.5
				v-0.92c0-2.07-1.02-3.11-3.07-3.11c-1.83,0-3.62,0.96-5.36,2.88v-3.72c1.3-1.56,3.18-2.34,5.63-2.34c1.83,0,3.31,0.49,4.41,1.46
				c0.37,0.31,0.7,0.73,1,1.25s0.48,1.04,0.56,1.55S413.8,394.19,413.8,395.63z M410.49,402.57v-5.11l-2.25,0.88
				c-1.15,0.46-1.95,0.93-2.43,1.39c-0.47,0.47-0.71,1.05-0.71,1.75c0,0.71,0.22,1.29,0.67,1.74c0.45,0.45,1.03,0.67,1.75,0.67
				C408.59,403.9,409.58,403.46,410.49,402.57z"/>
			<path class="st0" d="M424.76,389.17v2.19c1.5-1.68,3.21-2.53,5.12-2.53c1.06,0,2.04,0.28,2.95,0.83c0.91,0.55,1.6,1.32,2.08,2.28
				c0.47,0.97,0.71,2.5,0.71,4.59v9.84h-3.36v-9.8c0-1.76-0.26-3.02-0.79-3.77c-0.53-0.75-1.42-1.13-2.66-1.13
				c-1.59,0-2.94,0.8-4.04,2.41v12.29h-3.43v-17.21H424.76z"/>
			<path class="st0" d="M453.52,396.32v7.32c0,0.59,0.2,0.88,0.59,0.88c0.41,0,1.04-0.31,1.9-0.92v2.08
				c-0.76,0.5-1.38,0.84-1.84,1.02c-0.46,0.18-0.94,0.27-1.45,0.27c-1.44,0-2.29-0.57-2.55-1.72c-1.43,1.12-2.95,1.68-4.56,1.68
				c-1.18,0-2.17-0.4-2.95-1.19c-0.79-0.79-1.18-1.79-1.18-2.98c0-1.09,0.38-2.06,1.15-2.91c0.77-0.85,1.86-1.53,3.28-2.03l4.3-1.5
				v-0.92c0-2.07-1.02-3.11-3.07-3.11c-1.83,0-3.62,0.96-5.36,2.88v-3.72c1.3-1.56,3.18-2.34,5.63-2.34c1.83,0,3.31,0.49,4.41,1.46
				c0.37,0.31,0.7,0.73,1,1.25s0.48,1.04,0.56,1.55S453.52,394.87,453.52,396.32z M450.21,403.26v-5.11l-2.25,0.88
				c-1.15,0.46-1.95,0.93-2.43,1.39c-0.47,0.47-0.71,1.05-0.71,1.75c0,0.71,0.22,1.29,0.67,1.74c0.45,0.45,1.03,0.67,1.75,0.67
				C448.31,404.59,449.3,404.15,450.21,403.26z"/>
		</g>
		<g>
			<path class="st0" d="M170.58,433.81v17.4h-4.42v-17.4H170.58z"/>
			<path class="st0" d="M178.03,439.46v1.67c1.11-1.28,2.41-1.92,3.9-1.92c1.25,0,2.29,0.39,3.12,1.17c0.83,0.78,1.25,1.9,1.25,3.35
				v7.48h-3.78v-7.17c0-1.57-0.62-2.36-1.87-2.36c-0.89,0-1.77,0.65-2.63,1.94v7.59h-3.78v-11.76H178.03z"/>
			<path class="st0" d="M198.05,439.46v2.53h-4.37v4.85c0,0.58,0.16,1.04,0.49,1.38c0.33,0.34,0.78,0.5,1.35,0.5
				c0.78,0,1.62-0.23,2.53-0.68v2.68c-1.2,0.49-2.37,0.74-3.5,0.74c-1.47,0-2.62-0.37-3.43-1.12c-0.81-0.75-1.22-1.84-1.22-3.29
				v-5.04h-1.72v-0.72l5.02-5.51h0.47v3.7H198.05z"/>
			<path class="st0" d="M211.7,447.56v2.33c-1.44,1.03-3.22,1.54-5.35,1.54c-2.11,0-3.8-0.55-5.06-1.67
				c-1.26-1.11-1.89-2.58-1.89-4.41c0-1.79,0.59-3.27,1.78-4.43c1.19-1.16,2.7-1.73,4.54-1.73c1.85,0,3.36,0.61,4.54,1.82
				c1.18,1.22,1.73,2.85,1.66,4.89h-8.62c0.08,1.07,0.46,1.89,1.16,2.46s1.63,0.86,2.8,0.86
				C208.67,449.25,210.15,448.69,211.7,447.56z M203.38,443.98h5.21c-0.2-1.71-1.07-2.57-2.61-2.57
				C204.43,441.41,203.56,442.27,203.38,443.98z"/>
			<path class="st0" d="M218.24,439.46v3.36h0.05c1.09-2.41,2.37-3.61,3.83-3.61c0.69,0,1.53,0.36,2.5,1.07l-1.04,3.28
				c-0.93-0.58-1.68-0.87-2.24-0.87c-0.87,0-1.61,0.53-2.21,1.59s-0.9,1.68-0.9,1.85v5.09h-3.78v-11.76H218.24z"/>
			<path class="st0" d="M235.87,448v2.65c-1.47,0.52-2.83,0.79-4.06,0.79c-2.11,0-3.8-0.55-5.06-1.67
				c-1.26-1.11-1.89-2.58-1.89-4.41c0-1.79,0.64-3.26,1.91-4.42c1.28-1.16,2.9-1.74,4.88-1.74c1.27,0,2.62,0.26,4.04,0.77v2.75
				c-1.04-0.52-2.07-0.79-3.08-0.79c-1.13,0-2.03,0.31-2.71,0.92c-0.68,0.62-1.02,1.44-1.02,2.47c0,1.04,0.33,1.88,0.99,2.51
				c0.66,0.64,1.53,0.95,2.61,0.95C233.28,448.81,234.41,448.54,235.87,448z"/>
			<path class="st0" d="M246.67,451.21v-1.68c-1.11,1.27-2.4,1.91-3.88,1.91c-1.31,0-2.36-0.39-3.18-1.18
				c-0.81-0.79-1.22-1.88-1.22-3.28v-7.52h3.78v7.26c0,1.49,0.63,2.24,1.89,2.24c0.71,0,1.32-0.27,1.82-0.81s0.76-0.94,0.76-1.2
				v-7.49h3.8v11.76H246.67z"/>
			<path class="st0" d="M257.43,433.81v17.4h-3.78v-17.4H257.43z"/>
			<path class="st0" d="M269.25,439.46v2.53h-4.37v4.85c0,0.58,0.16,1.04,0.49,1.38c0.33,0.34,0.78,0.5,1.35,0.5
				c0.78,0,1.62-0.23,2.53-0.68v2.68c-1.2,0.49-2.37,0.74-3.5,0.74c-1.47,0-2.62-0.37-3.43-1.12c-0.81-0.75-1.22-1.84-1.22-3.29
				v-5.04h-1.72v-0.72l5.02-5.51h0.47v3.7H269.25z"/>
			<path class="st0" d="M279.47,451.21v-1.68c-1.11,1.27-2.4,1.91-3.88,1.91c-1.31,0-2.36-0.39-3.18-1.18
				c-0.81-0.79-1.22-1.88-1.22-3.28v-7.52h3.78v7.26c0,1.49,0.63,2.24,1.89,2.24c0.71,0,1.32-0.27,1.82-0.81s0.76-0.94,0.76-1.2
				v-7.49h3.8v11.76H279.47z"/>
			<path class="st0" d="M290.25,439.46v3.36h0.05c1.09-2.41,2.37-3.61,3.83-3.61c0.69,0,1.53,0.36,2.5,1.07l-1.04,3.28
				c-0.93-0.58-1.68-0.87-2.24-0.87c-0.87,0-1.61,0.53-2.21,1.59s-0.9,1.68-0.9,1.85v5.09h-3.78v-11.76H290.25z"/>
			<path class="st0" d="M310.3,448.31v2.06c-1.25,0.71-2.43,1.07-3.53,1.07c-1.19,0-1.89-0.44-2.11-1.32
				c-1.31,0.88-2.63,1.32-3.95,1.32c-0.93,0-1.72-0.29-2.38-0.87c-0.65-0.58-0.98-1.25-0.98-2.02c0-1.02,0.34-1.85,1.01-2.48
				c0.67-0.63,2.71-1.44,6.12-2.43c0.08-1.31-0.61-1.97-2.08-1.97c-1.6,0-3.08,0.66-4.42,1.97v-3.01c1.58-0.96,3.31-1.43,5.2-1.43
				c3.39,0,5.08,1.19,5.08,3.58v5.36c0,0.55,0.21,0.82,0.62,0.82C309.18,448.97,309.66,448.75,310.3,448.31z M304.47,448.36v-2.85
				c-1.26,0.43-2.13,0.82-2.6,1.17c-0.47,0.35-0.71,0.79-0.71,1.32c0,0.34,0.12,0.63,0.36,0.88s0.53,0.37,0.86,0.37
				C303.1,449.25,303.8,448.95,304.47,448.36z"/>
			<path class="st0" d="M315.71,433.81v17.4h-3.78v-17.4H315.71z"/>
		</g>
		<rect x="16.2" y="419.89" class="st0" width="448.8" height="1.33"/>
	</g>
	<g>
		<path class="st1" d="M363.22,200.21c-0.53,4.19-1.52,8.27-3.11,12.19c-7.19,17.72-20.12,28.98-38.34,34.24
			c-2.37,0.69-4.77,1.32-7.42,1.62c0.53-1.25,1.55-1.56,2.41-2.03c8.49-4.67,14.66-11.5,17.28-20.86
			c3.05-10.9,1.33-21.23-5.84-30.27c-5.02-6.32-11.46-10.75-19.39-12.23c-13.88-2.6-26.95,2.25-35.04,14.61
			c-3.77,5.75-5.98,12.23-8.71,18.46c-7.66,17.43-15.22,34.9-22.82,52.35c-0.22,0.52-0.5,1.01-0.86,1.73
			c-1.56-2.67-2.62-5.36-3.78-7.99c-9.02-20.47-17.53-41.17-27.03-61.42c-4.52-9.64-12.6-15.82-23.02-17.78
			c-20.07-3.79-35.35,9.23-39.38,24.86c-2.68,10.38-0.62,20.18,6.04,28.8c3.07,3.98,6.81,7.15,11.24,9.53
			c1.02,0.55,2.16,0.96,3.04,2.16c-2,0.04-3.68-0.52-5.34-0.93c-21.86-5.43-36.07-19-42.63-40.64c-0.76-2.5-0.85-5.11-1.37-7.65
			c0-3.77,0-7.53,0-11.3c0.3-1.48,0.2-2.99,0.37-4.49c0.81-7.28,3.75-13.75,7.75-19.73c4.91-7.34,11.17-13.34,18.79-17.84
			c6.68-3.95,13.92-6.51,21.55-7.52c10.28-1.37,20.39-0.24,30.02,3.78c6.48,2.71,12.33,6.48,17.51,11.3c3.06,2.85,5.85,5.89,7.23,8
			c-1.46-2.62-2.85-7.05-4.24-11.48c-2.52-8.01-3.99-16.24-4.62-24.59c-0.47-6.24-0.56-12.5-0.18-18.78
			c0.61-10.2,2.71-20.07,5.76-29.77c2.82-8.96,6.81-17.4,11.51-25.51c2.49-4.29,5.23-8.43,7.87-12.63c0.67-1.07,1.46-2.02,2.58-2.65
			c0.1,0,0.21,0,0.31,0c2.06,0.92,2.92,2.95,4.07,4.64c10.46,15.42,18.16,32.06,21.82,50.44c1.12,5.63,1.84,11.33,2.13,17.09
			c0.17,3.35,0.33,6.69,0.22,10.02c-0.45,12.94-2.74,25.54-7.21,37.71c-0.86,2.35-1.67,4.73-3.04,6.85c2.68-4.25,6.38-7.59,10-10.96
			c7.71-7.2,17.14-11.04,27.29-13.02c4.88-0.95,9.89-1.02,14.91-0.71c6.97,0.43,13.53,2.25,19.83,5.13
			c4.67,2.13,8.95,4.89,12.89,8.19c6.2,5.19,11.19,11.35,14.69,18.68c2.39,5.01,4.26,10.17,4.13,15.85c0,0.16,0.05,0.3,0.15,0.43
			C363.22,190.8,363.22,195.51,363.22,200.21z"/>
		<path class="st1" d="M246.65,352.11c3.86-5.62,6.38-11.92,9.06-18.13c12.58-29.13,25.1-58.29,37.64-87.44
			c3.19-7.41,6.35-14.82,9.56-22.21c0.36-0.82,0.69-2.24,1.58-2.03c0.82,0.19,0.52,1.63,0.49,2.53
			c-0.44,12.49-0.91,24.98-1.36,37.47c-0.36,10.19-0.84,20.38-1,30.57c-0.18,11.08-2.34,21.51-8.47,30.92
			c-5.31,8.15-12.35,14.3-20.82,18.94c-8,4.38-16.55,7.15-25.41,9.07c-0.25,0.05-0.52,0.03-0.66,0.31
			C247.06,352.11,246.86,352.11,246.65,352.11z"/>
		<path class="st2" d="M178.08,214c1.18,0,2.36,0,3.55,0c7.86,0.03,15.73,0.24,23.59,0.03c4.56-0.12,7.26,1.77,8.99,5.87
			c3.84,9.05,7.83,18.04,11.81,27.04c4.69,10.62,9.12,21.35,14.04,31.86c0.33,0.7,0.71,1.38,1.17,2.26
			c1.17-1.88,1.85-3.78,2.65-5.61c7.6-17.35,15.18-34.71,22.8-52.06c0.94-2.14,2-4.24,3.16-6.27c1.09-1.91,2.64-2.96,5.07-2.95
			c9.53,0.05,19.06-0.09,28.59-0.16c0.35,0,0.7,0,1.5,0c-4.36,2.83-5.24,7.39-6.96,11.35c-12.73,29.36-25.31,58.78-37.98,88.17
			c-4.8,11.13-9.54,22.3-14.73,33.26c-1.27,2.67-4.96,3.35-7.13,1.39c-0.76-0.69-1.13-1.62-1.54-2.51
			c-4.12-8.76-8.05-17.61-11.87-26.5c-11.97-27.82-23.91-55.65-35.87-83.47c-1.99-4.64-3.99-9.28-6.03-13.89
			C181.66,219.04,180.54,216.19,178.08,214z"/>
		<path class="st1" d="M177.99,221.95c0.79,0.48,0.99,1.29,1.29,1.98c3.59,8.2,7.15,16.4,10.7,24.61
			c6.98,16.19,13.97,32.38,20.92,48.58c5.38,12.52,10.63,25.1,16.09,37.58c2.52,5.75,4.68,11.7,8.66,17.05
			c-2.48-0.05-4.48-0.7-6.5-1.22c-9.5-2.48-18.52-5.96-26.6-11.77c-11.4-8.19-18.3-19.25-21.54-32.8
			c-1.09-4.56-1.02-9.24-1.21-13.87c-0.6-14.52-1.05-29.05-1.53-43.58c-0.26-8-0.47-15.99-0.68-23.99
			C177.58,223.67,177.49,222.79,177.99,221.95z"/>
	</g>
</g>
</svg>
